# xmcd
#
# Track frame offsets: 
#        150
#        17476
#        35787
#        50228
#        67291
#        90055
#        114977
#        131531
#        151613
#        168081
#        189739
#        207783
#        226305
#        246504
#        267626
#        282008
#        310314
#        328279
#
# Disc length: 4692 seconds
#
# Revision: 3
# Processed by: cddbd v1.5.2PL0 Copyright (c) Steve Scherf et al.
# Submitted via: ExactAudioCopy v0.99pb5
#
DISCID=01125212
DTITLE=Bonnie Raitt - The Best Of Bonnie Raitt
DYEAR=2003
DGENRE=Blues
TTITLE0=Thing Called Love
TTITLE1=Nick Of Time
TTITLE2=Nobody's Girl
TTITLE3=Something To Talk About
TTITLE4=Not The Only One
TTITLE5=I Can´T Make You  Love Me
TTITLE6=Love Sneakin´Up On You
TTITLE7=You
TTITLE8=Dimming Of The Day
TTITLE9=Love Me Like A Man (Live)
TTITLE10=Rock Steady (Live)
TTITLE11=I Believe I'm In Love With You (Live)
TTITLE12=Lover's Will
TTITLE13=Spit Of Love
TTITLE14=I Can't Help You Now
TTITLE15=Silver Lining
TTITLE16=Time Of Our Lives
TTITLE17=Hear Me Lord
EXTD=Sep  30, 2003 YEAR: 2003
EXTT0=
EXTT1=
EXTT2=
EXTT3=
EXTT4=
EXTT5=
EXTT6=
EXTT7=
EXTT8=
EXTT9=
EXTT10=
EXTT11=
EXTT12=
EXTT13=
EXTT14=
EXTT15=
EXTT16=
EXTT17=
PLAYORDER=
